{"title":"Joy.2015.DVDScr.XVID.AC3.HQ.Hive-CM8","uid":13059468,"size":1593559379,"categoryP":"video","categoryS":"movies","magnet":"?xt=urn:btih:6d7a6419e429d1af615b9f75b066e59c24c8654e&amp;dn=Joy.2015.DVDScr.XVID.AC3.HQ.Hive-CM8&amp;tr=udp%3A%2F%2Ftracker.leechers-paradise.org%3A6969&amp;tr=udp%3A%2F%2Fzer0day.ch%3A1337&amp;tr=udp%3A%2F%2Fopen.demonii.com%3A1337&amp;tr=udp%3A%2F%2Ftracker.coppersurfer.tk%3A6969&amp;tr=udp%3A%2F%2Fexodus.desync.com%3A6969","seeders":0,"leechers":0,"uploader":"TvTeam","files":4,"time":1450697780,"description":"------------------------------------------------------------------------\r\n\r  https://www.torrenting.com\r\n\r\nSign up is OPEN - for time being. Come and have fun.\r\n\r\n------------------------------------------------------------------------[center][img]http://img910.imageshack.us/img910/9817/P3lbdj.jpg[/img]\r\n\r\n \r\n[color=blue][size=4][b]Joy.2015.DVDScr.XVID.AC3.HQ.Hive-CM8[/b][/size][/color]\r\n\r\nThx Hive\r\n\r\nCM8 Doing It Right The First Time \r\n\r\nSource: DVD-Screener Big THX m8\r\n\r\nNotes:\r\nDVDScreener 5 of 40\r\nwill do them all one after each other, 5th hot title\r\n\r\nEncode:\r\nquality was perfect on this.\r\nAll digital watermarks are removed.\r\nFixed brightness,contrast and rgb, and added sharpness.\r\n\r\ngot very nice\r\nenjoy\r\n\r\nVideo: 720x400 @bitrate 1600 2pass\r\nAudio: English AC3 2.0 Stereo\r\nSample: yes included\r\n\r\n\r\n \nhttp://www.imdb.com/title/tt2446980/\r\n\r\n\r\n\r\nGeneral\r\nComplete name                  : Joy.2015.DVDScr.XVID.AC3.HQ.Hive-CM8.avi\r\nFormat                         : AVI\r\nFormat/Info                    : Audio Video Interleave\r\nFile size                      : 1.47 GiB\r\nDuration                       : 1h 53mn\r\nOverall bit rate               : 1 862 Kbps\r\nWriting application            : Nandub v1.0rc2\r\nWriting library                : Nandub build 1853/release\r\n\r\nVideo\r\nID                             : 0\r\nFormat                         : MPEG-4 Visual\r\nFormat profile                 : Advanced   \r\nFormat settings, BVOP          : 2\r\nFormat settings, QPel          : Yes\r\nFormat settings, GMC           : No warppoints\r\nFormat settings, Matrix        : Default (H.263)\r\nMuxing mode                    : Packed bitstream\r\nCodec ID                       : XVID\r\nCodec ID/Hint                  : XviD\r\nDuration                       : 1h 53mn\r\nBit rate                       : 1 594 Kbps\r\nWidth                          : 720 pixels\r\nHeight                         : 400 pixels\r\nDisplay aspect ratio           : 16:9\r\nFrame rate                     : 29.970 fps\r\nColor space                    : YUV\r\nChroma subsampling             : 4:2:0\r\nBit depth                      : 8 bits\r\nScan type                      : Progressive\r\nCompression mode               : Lossy\r\nBits/(Pixel*Frame)             : 0.185\r\nStream size                    : 1.26 GiB (86%)\r\nWriting library                : XviD 1.2.1 (UTC 2008-12-04)\r\n\r\nAudio\r\nID                             : 1\r\nFormat                         : AC-3\r\nFormat/Info                    : Audio Coding 3\r\nMode extension                 : CM (complete main)\r\nFormat settings, Endianness    : Big\r\nCodec ID                       : 2000\r\nDuration                       : 1h 53mn\r\nBit rate mode                  : Constant\r\nBit rate                       : 256 Kbps\r\nChannel(s)                     : 2 channels\r\nChannel positions              : Front: L R\r\nSampling rate                  : 48.0 KHz\r\nBit depth                      : 16 bits\r\nCompression mode               : Lossy\r\nDelay relative to video        : 24ms\r\nStream size                    : 207 MiB (14%)\r\nAlignment                      : Split accross interleaves\r\nInterleave, duration           : 33 ms (1.00 video frame)\r\nInterleave, preload duration   : 500 ms\r\n\r\n\r\n\r\nScreens \r\n\r\n[img]http://img633.imageshack.us/img633/9213/TXiVsW.png[/img]\r\n[img]http://img907.imageshack.us/img907/2678/v1HyJV.png[/img]\r\n[img]http://img907.imageshack.us/img907/4348/TtpYkx.png[/img]\r\n[img]http://img907.imageshack.us/img907/1303/ykp9UX.png[/img]\r\n[img]http://img907.imageshack.us/img907/4060/Dr1ENB.png[/img]\r\n[img]http://img908.imageshack.us/img908/1733/UWqVHc.png[/img]\r\n[img]http://img907.imageshack.us/img907/5803/JLSG3t.png[/img]\r\n\r\n\r\nPlot\r\n\r\nJoy is the story of a family across four generations and the woman who rises \r\nto become founder and matriarch of a powerful family business dynasty.\r\n\r\nCast\r\n\r\nJennifer Lawrence ... \tJoy\r\nRobert De Niro \t  ... \tRudy\r\nBradley Cooper \t  ... \tNeil Walker\r\ndgar Ramrez \t  ... \tTony \r\n\r\n\r\nSugarB,iNCOMiNG,Izzy,MenaceIISociety,jiinx,SiMPLE,CherryBomb,bigguy79\r\nranbailey,ViSiON,UnKnOwN,YanKeeS,COPYxRIGHT,THC,VAiN,ACAB,DRs\r\nLKRG,Kingstoner,SiMPLE,TiTAN,cadance,PLAYNOW\r\nUnevano,BigVik,Rapeseed,SAFC,goldadvance,KaN1vE,Pinnz,Wayne,HiGH\r\nSeeN,jtr,Limey,ICONiK,TED,rkofan,mrtoke09\r\nMr Hive\r\n\r\nWONDER WHERE ALL THE OLD DDD FOLKS ARE DONT BE SCARED MESSAGE ME \r\n\r\nsupport the producer and watch it in cinema as intended on the big screen \r\n\r\n\r\n\r\nLOOKING FOR ANYTHING YOU WANT TO LOOK AND SOUND BETTER\r\n\r\nCOME FIND US WE DONT BITE \r\n  [/center]","torrent":{"xt":"urn:btih:6d7a6419e429d1af615b9f75b066e59c24c8654e","amp;dn":"Joy.2015.DVDScr.XVID.AC3.HQ.Hive-CM8","amp;tr":["udp%3A%2F%2Ftracker.leechers-paradise.org%3A6969","udp%3A%2F%2Fzer0day.ch%3A1337","udp%3A%2F%2Fopen.demonii.com%3A1337","udp%3A%2F%2Ftracker.coppersurfer.tk%3A6969","udp%3A%2F%2Fexodus.desync.com%3A6969"],"infoHash":"6d7a6419e429d1af615b9f75b066e59c24c8654e","infoHashBuffer":{"type":"Buffer","data":[109,122,100,25,228,41,209,175,97,91,159,117,176,102,229,156,36,200,101,78]},"announce":[],"urlList":[]}}